<mxfile host="Electron" modified="2024-06-01T05:20:50.795Z" agent="Mozilla/5.0 (X11; Linux x86_64) AppleWebKit/537.36 (KHTML, like Gecko) draw.io/24.4.13 Chrome/124.0.6367.207 Electron/30.0.6 Safari/537.36" etag="5KiShUWsQSsw2qUhMweM" version="24.4.13" type="device">
  <diagram name="Page-1" id="XOgep7xN6cvRrsEyFYAU">
    <mxGraphModel dx="2868" dy="1750" grid="1" gridSize="10" guides="1" tooltips="1" connect="1" arrows="1" fold="1" page="1" pageScale="1" pageWidth="2400" pageHeight="1200" math="0" shadow="0">
      <root>
        <mxCell id="0" />
        <mxCell id="1" parent="0" />
        <mxCell id="MKBLukAdihqXzBTZwlin-15" style="rounded=0;orthogonalLoop=1;jettySize=auto;html=1;entryX=0.5;entryY=0;entryDx=0;entryDy=0;endArrow=none;endFill=0;" edge="1" parent="1" source="MKBLukAdihqXzBTZwlin-2" target="MKBLukAdihqXzBTZwlin-4">
          <mxGeometry relative="1" as="geometry" />
        </mxCell>
        <mxCell id="MKBLukAdihqXzBTZwlin-18" style="edgeStyle=orthogonalEdgeStyle;rounded=0;orthogonalLoop=1;jettySize=auto;html=1;entryX=0;entryY=0.5;entryDx=0;entryDy=0;endArrow=none;endFill=0;" edge="1" parent="1" source="MKBLukAdihqXzBTZwlin-2" target="MKBLukAdihqXzBTZwlin-3">
          <mxGeometry relative="1" as="geometry" />
        </mxCell>
        <mxCell id="MKBLukAdihqXzBTZwlin-20" style="edgeStyle=orthogonalEdgeStyle;rounded=0;orthogonalLoop=1;jettySize=auto;html=1;endArrow=none;endFill=0;" edge="1" parent="1" source="MKBLukAdihqXzBTZwlin-2" target="MKBLukAdihqXzBTZwlin-19">
          <mxGeometry relative="1" as="geometry" />
        </mxCell>
        <mxCell id="MKBLukAdihqXzBTZwlin-2" value="&lt;font style=&quot;font-size: 14px;&quot;&gt;LoginActivity&lt;/font&gt;" style="swimlane;whiteSpace=wrap;html=1;" vertex="1" parent="1">
          <mxGeometry x="390" y="120" width="200" height="200" as="geometry" />
        </mxCell>
        <mxCell id="MKBLukAdihqXzBTZwlin-25" style="edgeStyle=orthogonalEdgeStyle;rounded=0;orthogonalLoop=1;jettySize=auto;html=1;exitX=1;exitY=0.5;exitDx=0;exitDy=0;entryX=0;entryY=0.5;entryDx=0;entryDy=0;dashed=1;" edge="1" parent="1" source="MKBLukAdihqXzBTZwlin-3" target="MKBLukAdihqXzBTZwlin-6">
          <mxGeometry relative="1" as="geometry" />
        </mxCell>
        <mxCell id="MKBLukAdihqXzBTZwlin-3" value="&lt;font style=&quot;font-size: 14px;&quot;&gt;RegisterActivity&lt;/font&gt;" style="swimlane;whiteSpace=wrap;html=1;" vertex="1" parent="1">
          <mxGeometry x="690" y="120" width="200" height="200" as="geometry" />
        </mxCell>
        <mxCell id="MKBLukAdihqXzBTZwlin-4" value="MainActivity" style="swimlane;whiteSpace=wrap;html=1;" vertex="1" parent="1">
          <mxGeometry x="390" y="400" width="200" height="200" as="geometry" />
        </mxCell>
        <mxCell id="MKBLukAdihqXzBTZwlin-5" value="&lt;div style=&quot;&quot;&gt;&lt;font style=&quot;font-size: 12px;&quot;&gt;&amp;lt;&amp;lt;static&amp;gt;&amp;gt;&lt;/font&gt;&lt;/div&gt;&lt;font style=&quot;font-size: 14px;&quot;&gt;AuthManager&lt;/font&gt;" style="swimlane;whiteSpace=wrap;html=1;startSize=30;swimlaneLine=1;fontSize=10;" vertex="1" parent="1">
          <mxGeometry x="90" y="120" width="200" height="200" as="geometry" />
        </mxCell>
        <mxCell id="MKBLukAdihqXzBTZwlin-22" style="edgeStyle=orthogonalEdgeStyle;rounded=0;orthogonalLoop=1;jettySize=auto;html=1;entryX=0.5;entryY=1;entryDx=0;entryDy=0;endArrow=open;endFill=0;" edge="1" parent="1" target="MKBLukAdihqXzBTZwlin-10">
          <mxGeometry relative="1" as="geometry">
            <mxPoint x="1290" y="370" as="sourcePoint" />
            <Array as="points">
              <mxPoint x="1390" y="370" />
              <mxPoint x="1390" y="650" />
              <mxPoint x="2250" y="650" />
            </Array>
          </mxGeometry>
        </mxCell>
        <mxCell id="MKBLukAdihqXzBTZwlin-6" value="&lt;font style=&quot;font-size: 14px;&quot;&gt;UserRegistration&lt;/font&gt;" style="swimlane;whiteSpace=wrap;html=1;startSize=23;" vertex="1" parent="1">
          <mxGeometry x="1090" y="260" width="200" height="200" as="geometry" />
        </mxCell>
        <mxCell id="MKBLukAdihqXzBTZwlin-7" value="&lt;font style=&quot;font-size: 14px;&quot;&gt;&lt;i&gt;User&lt;/i&gt;&lt;/font&gt;" style="swimlane;whiteSpace=wrap;html=1;startSize=23;" vertex="1" parent="1">
          <mxGeometry x="1820" y="90" width="200" height="200" as="geometry" />
        </mxCell>
        <mxCell id="MKBLukAdihqXzBTZwlin-24" style="edgeStyle=orthogonalEdgeStyle;rounded=0;orthogonalLoop=1;jettySize=auto;html=1;startArrow=open;startFill=0;endArrow=none;endFill=0;" edge="1" parent="1" source="MKBLukAdihqXzBTZwlin-8">
          <mxGeometry relative="1" as="geometry">
            <mxPoint x="1590" y="650" as="targetPoint" />
          </mxGeometry>
        </mxCell>
        <mxCell id="MKBLukAdihqXzBTZwlin-36" style="edgeStyle=orthogonalEdgeStyle;rounded=0;orthogonalLoop=1;jettySize=auto;html=1;exitX=0.5;exitY=0;exitDx=0;exitDy=0;endArrow=none;endFill=0;" edge="1" parent="1" source="MKBLukAdihqXzBTZwlin-8">
          <mxGeometry relative="1" as="geometry">
            <mxPoint x="1920" y="350" as="targetPoint" />
            <Array as="points">
              <mxPoint x="1590" y="350" />
              <mxPoint x="1590" y="350" />
            </Array>
          </mxGeometry>
        </mxCell>
        <mxCell id="MKBLukAdihqXzBTZwlin-8" value="&lt;font style=&quot;font-size: 14px;&quot;&gt;Client&lt;/font&gt;" style="swimlane;whiteSpace=wrap;html=1;startSize=23;" vertex="1" parent="1">
          <mxGeometry x="1490" y="400" width="200" height="200" as="geometry" />
        </mxCell>
        <mxCell id="MKBLukAdihqXzBTZwlin-23" style="edgeStyle=orthogonalEdgeStyle;rounded=0;orthogonalLoop=1;jettySize=auto;html=1;startArrow=open;startFill=0;endArrow=none;endFill=0;" edge="1" parent="1" source="MKBLukAdihqXzBTZwlin-9">
          <mxGeometry relative="1" as="geometry">
            <mxPoint x="1920" y="650" as="targetPoint" />
          </mxGeometry>
        </mxCell>
        <mxCell id="MKBLukAdihqXzBTZwlin-27" style="edgeStyle=orthogonalEdgeStyle;rounded=0;orthogonalLoop=1;jettySize=auto;html=1;entryX=0.5;entryY=1;entryDx=0;entryDy=0;endArrow=block;endFill=1;strokeWidth=1;" edge="1" parent="1" source="MKBLukAdihqXzBTZwlin-9" target="MKBLukAdihqXzBTZwlin-7">
          <mxGeometry relative="1" as="geometry" />
        </mxCell>
        <mxCell id="MKBLukAdihqXzBTZwlin-9" value="&lt;font style=&quot;font-size: 14px;&quot;&gt;Landlord&lt;/font&gt;" style="swimlane;whiteSpace=wrap;html=1;startSize=23;" vertex="1" parent="1">
          <mxGeometry x="1820" y="400" width="200" height="200" as="geometry" />
        </mxCell>
        <mxCell id="MKBLukAdihqXzBTZwlin-37" style="edgeStyle=orthogonalEdgeStyle;rounded=0;orthogonalLoop=1;jettySize=auto;html=1;endArrow=none;endFill=0;" edge="1" parent="1" source="MKBLukAdihqXzBTZwlin-10">
          <mxGeometry relative="1" as="geometry">
            <mxPoint x="1920" y="350" as="targetPoint" />
            <Array as="points">
              <mxPoint x="2250" y="350" />
            </Array>
          </mxGeometry>
        </mxCell>
        <mxCell id="MKBLukAdihqXzBTZwlin-10" value="&lt;font style=&quot;font-size: 14px;&quot;&gt;PropertyMgr&lt;/font&gt;" style="swimlane;whiteSpace=wrap;html=1;startSize=23;" vertex="1" parent="1">
          <mxGeometry x="2150" y="400" width="200" height="200" as="geometry" />
        </mxCell>
        <mxCell id="MKBLukAdihqXzBTZwlin-11" value="redirect&lt;br&gt;to" style="text;html=1;align=center;verticalAlign=middle;resizable=0;points=[];autosize=1;strokeColor=none;fillColor=none;" vertex="1" parent="1">
          <mxGeometry x="495" y="330" width="60" height="40" as="geometry" />
        </mxCell>
        <mxCell id="MKBLukAdihqXzBTZwlin-12" value="" style="triangle;whiteSpace=wrap;html=1;direction=east;fillColor=#000000;rotation=90;" vertex="1" parent="1">
          <mxGeometry x="520" y="370" width="10" height="10" as="geometry" />
        </mxCell>
        <mxCell id="MKBLukAdihqXzBTZwlin-16" value="redirect&lt;br&gt;to" style="text;html=1;align=center;verticalAlign=middle;resizable=0;points=[];autosize=1;strokeColor=none;fillColor=none;" vertex="1" parent="1">
          <mxGeometry x="605" y="169" width="60" height="40" as="geometry" />
        </mxCell>
        <mxCell id="MKBLukAdihqXzBTZwlin-17" value="" style="triangle;whiteSpace=wrap;html=1;direction=east;fillColor=#000000;" vertex="1" parent="1">
          <mxGeometry x="665" y="184" width="10" height="10" as="geometry" />
        </mxCell>
        <mxCell id="MKBLukAdihqXzBTZwlin-19" value="" style="shape=orEllipse;perimeter=ellipsePerimeter;whiteSpace=wrap;html=1;backgroundOutline=1;" vertex="1" parent="1">
          <mxGeometry x="290" y="210" width="20" height="20" as="geometry" />
        </mxCell>
        <mxCell id="MKBLukAdihqXzBTZwlin-26" value="create" style="text;html=1;align=center;verticalAlign=middle;resizable=0;points=[];autosize=1;strokeColor=none;fillColor=none;" vertex="1" parent="1">
          <mxGeometry x="1330" y="370" width="60" height="30" as="geometry" />
        </mxCell>
        <mxCell id="MKBLukAdihqXzBTZwlin-30" value="0..*" style="text;html=1;align=center;verticalAlign=middle;resizable=0;points=[];autosize=1;strokeColor=none;fillColor=none;" vertex="1" parent="1">
          <mxGeometry x="1590" y="600" width="40" height="30" as="geometry" />
        </mxCell>
        <mxCell id="MKBLukAdihqXzBTZwlin-31" value="0..*" style="text;html=1;align=center;verticalAlign=middle;resizable=0;points=[];autosize=1;strokeColor=none;fillColor=none;" vertex="1" parent="1">
          <mxGeometry x="1920" y="600" width="40" height="30" as="geometry" />
        </mxCell>
        <mxCell id="MKBLukAdihqXzBTZwlin-32" value="0..*" style="text;html=1;align=center;verticalAlign=middle;resizable=0;points=[];autosize=1;strokeColor=none;fillColor=none;" vertex="1" parent="1">
          <mxGeometry x="2250" y="600" width="40" height="30" as="geometry" />
        </mxCell>
        <mxCell id="MKBLukAdihqXzBTZwlin-33" value="nested" style="text;html=1;align=center;verticalAlign=middle;resizable=0;points=[];autosize=1;strokeColor=none;fillColor=none;" vertex="1" parent="1">
          <mxGeometry x="290" y="180" width="60" height="30" as="geometry" />
        </mxCell>
        <mxCell id="MKBLukAdihqXzBTZwlin-35" value="depends&lt;div&gt;on&lt;/div&gt;" style="text;html=1;align=center;verticalAlign=middle;resizable=0;points=[];autosize=1;strokeColor=none;fillColor=none;" vertex="1" parent="1">
          <mxGeometry x="920" y="260" width="70" height="40" as="geometry" />
        </mxCell>
      </root>
    </mxGraphModel>
  </diagram>
</mxfile>
